<?xml version="1.0" encoding="UTF-8" standalone="no"?>
<!-- Created with Inkscape (http://www.inkscape.org/) -->
<svg
      xmlns:inkscape="http://www.inkscape.org/namespaces/inkscape"
      xmlns:rdf="http://www.w3.org/1999/02/22-rdf-syntax-ns#"
      xmlns="http://www.w3.org/2000/svg"
      xmlns:sodipodi="http://sodipodi.sourceforge.net/DTD/sodipodi-0.dtd"
      xmlns:cc="http://creativecommons.org/ns#"
      xmlns:xlink="http://www.w3.org/1999/xlink"
      xmlns:dc="http://purl.org/dc/elements/1.1/"
      id="svg2"
      sodipodi:docname="_svgclean2.svg"
      inkscape:export-filename="/home/jpd/Graphics/projects/svg/daffodil.png"
      viewBox="0 0 530.44 1033.9"
      sodipodi:version="0.32"
      inkscape:export-xdpi="144.00000"
      version="1.1"
      inkscape:export-ydpi="144.00000"
      inkscape:version="0.48.3.1 r9886"
    >
      <defs id="defs3">
        <linearGradient id="linearGradient2329">
          <stop
            id="stop2331"
            style="stop-color:#ffffba;stop-opacity:.61818"
            offset="0"
          />
          <stop
            id="stop2333"
            style="stop-color:#ffffff;stop-opacity:0"
            offset="1"
          />
        </linearGradient>
        <linearGradient id="linearGradient2290">
          <stop
            id="stop2292"
            style="stop-color:#000000;stop-opacity:0"
            offset="0"
          />
          <stop id="stop2296" style="stop-color:#000000" offset=".5" />
          <stop
            id="stop2294"
            style="stop-color:#000000;stop-opacity:0"
            offset="1"
          />
        </linearGradient>
        <linearGradient id="linearGradient2059">
          <stop id="stop2061" style="stop-color:#fff100" offset="0" />
          <stop id="stop2063" style="stop-color:#ffcf00" offset="1" />
        </linearGradient>
        <linearGradient
          id="linearGradient2576"
          y2="676.14"
          xlink:href="#linearGradient2329"
          gradientUnits="userSpaceOnUse"
          y1="42.72"
          gradientTransform="scale(.6102 1.6388)"
          x2="100.05"
          x1="733.26"
          inkscape:collect="always"
        />
        <radialGradient
          id="radialGradient2578"
          xlink:href="#linearGradient2059"
          gradientUnits="userSpaceOnUse"
          cy="399.45"
          cx="379.21"
          gradientTransform="scale(.98665 1.0135)"
          r="340.73"
          inkscape:collect="always"
        />
        <linearGradient
          id="linearGradient2580"
          y2="345.24"
          xlink:href="#linearGradient2329"
          gradientUnits="userSpaceOnUse"
          y1="599.35"
          gradientTransform="scale(.97861 1.0219)"
          x2="329.61"
          x1="607.39"
          inkscape:collect="always"
        />
        <radialGradient
          id="radialGradient2582"
          xlink:href="#linearGradient2059"
          gradientUnits="userSpaceOnUse"
          cy="360.2"
          cx="288.53"
          gradientTransform="scale(1.2386 .80736)"
          r="242"
          inkscape:collect="always"
        />
        <linearGradient
          id="linearGradient2584"
          y2="410.05"
          xlink:href="#linearGradient2329"
          gradientUnits="userSpaceOnUse"
          y1="224.93"
          gradientTransform="scale(1.1301 .88488)"
          x2="337.3"
          x1="519.28"
          inkscape:collect="always"
        />
        <radialGradient
          id="radialGradient2586"
          fx="440.97"
          fy="336.39"
          xlink:href="#linearGradient2059"
          gradientUnits="userSpaceOnUse"
          cy="338.39"
          cx="444.48"
          gradientTransform="scale(.75032 1.3328)"
          r="305.9"
          inkscape:collect="always"
        />
        <linearGradient
          id="linearGradient2588"
          y2="310.4"
          xlink:href="#linearGradient2329"
          gradientUnits="userSpaceOnUse"
          y1="554.01"
          gradientTransform="matrix(.65914 0 0 1.1716 38.589 70.008)"
          x2="406.05"
          x1="416.57"
          inkscape:collect="always"
        />
        <radialGradient
          id="radialGradient2590"
          fx="482.93"
          fy="195.56"
          xlink:href="#linearGradient2059"
          gradientUnits="userSpaceOnUse"
          cy="196.38"
          cx="486.73"
          gradientTransform="scale(.72967 1.3705)"
          r="196.57"
          inkscape:collect="always"
        />
        <linearGradient
          id="linearGradient2592"
          y2="194.74"
          xlink:href="#linearGradient2329"
          gradientUnits="userSpaceOnUse"
          y1="3.4196"
          gradientTransform="matrix(.63764 0 0 1.1976 44.305 18.54)"
          x2="465.48"
          x1="474.59"
          inkscape:collect="always"
        />
        <linearGradient
          id="linearGradient2594"
          y2="441.82"
          gradientUnits="userSpaceOnUse"
          y1="208.32"
          gradientTransform="matrix(.76694 0 0 1.0986 39.481 -5.2033)"
          x2="407.88"
          x1="374.29"
          inkscape:collect="always"
        >
          <stop id="stop2109" style="stop-color:#fff100" offset="0" />
          <stop id="stop2111" style="stop-color:#ffb400" offset="1" />
        </linearGradient>
        <linearGradient
          id="linearGradient2596"
          y2="2469.8"
          xlink:href="#linearGradient2290"
          gradientUnits="userSpaceOnUse"
          y1="2307.9"
          gradientTransform="matrix(.51475 .05688 -.020039 .18134 307.05 -48.707)"
          x2="129.33"
          x1="129.33"
          inkscape:collect="always"
        />
        <linearGradient
          id="linearGradient2598"
          y2="2469.8"
          xlink:href="#linearGradient2290"
          gradientUnits="userSpaceOnUse"
          y1="2307.9"
          gradientTransform="matrix(.9566 0 0 .18245 197.29 -81.472)"
          x2="129.33"
          x1="129.33"
          inkscape:collect="always"
        />
        <linearGradient
          id="linearGradient2600"
          y2="2469.8"
          xlink:href="#linearGradient2290"
          gradientUnits="userSpaceOnUse"
          y1="2307.9"
          gradientTransform="matrix(.56993 -.1106 .034758 .17911 173.25 -133.1)"
          x2="129.33"
          x1="129.33"
          inkscape:collect="always"
        />
        <linearGradient
          id="linearGradient2602"
          y2="2469.8"
          xlink:href="#linearGradient2290"
          gradientUnits="userSpaceOnUse"
          y1="2307.9"
          gradientTransform="matrix(.76858 0 0 .18245 242.06 -119.49)"
          x2="129.33"
          x1="129.33"
          inkscape:collect="always"
        />
        <linearGradient
          id="linearGradient2604"
          y2="441.82"
          xlink:href="#linearGradient2329"
          gradientUnits="userSpaceOnUse"
          y1="208.32"
          gradientTransform="matrix(.69024 0 0 .98874 66.875 29.659)"
          x2="407.88"
          x1="374.29"
          inkscape:collect="always"
        />
        <radialGradient
          id="radialGradient2606"
          xlink:href="#linearGradient2059"
          gradientUnits="userSpaceOnUse"
          cy="405.53"
          cx="255.83"
          gradientTransform="scale(1.0993 .90965)"
          r="254.81"
          inkscape:collect="always"
        />
        <radialGradient
          id="radialGradient2608"
          xlink:href="#linearGradient2059"
          gradientUnits="userSpaceOnUse"
          cy="252.29"
          cx="194.98"
          gradientTransform="scale(1.031 .96994)"
          r="220.77"
          inkscape:collect="always"
        />
        <linearGradient
          id="linearGradient2610"
          y2="234.76"
          xlink:href="#linearGradient2329"
          gradientUnits="userSpaceOnUse"
          y1="234.76"
          gradientTransform="matrix(.93027 0 0 .91882 9.1915 13.607)"
          x2="284.57"
          x1="10.181"
          inkscape:collect="always"
        />
        <linearGradient
          id="linearGradient2612"
          y2="437"
          xlink:href="#linearGradient2329"
          gradientUnits="userSpaceOnUse"
          y1="615.61"
          gradientTransform="matrix(1.1332 0 0 .88246 -4 4)"
          x2="231.3"
          x1="50.052"
          inkscape:collect="always"
        />
        <radialGradient
          id="radialGradient2614"
          fx="399.08"
          gradientUnits="userSpaceOnUse"
          cy="181.95"
          cx="501.91"
          gradientTransform="scale(1.0076 .99246)"
          r="240.95"
          inkscape:collect="always"
        >
          <stop id="stop2125" style="stop-color:#cdc100" offset="0" />
          <stop id="stop2129" style="stop-color:#e8db00" offset=".3" />
          <stop id="stop2133" style="stop-color:#fae500" offset=".3" />
          <stop id="stop2131" style="stop-color:#fcca00" offset=".85" />
          <stop id="stop2127" style="stop-color:#ff9800" offset="1" />
        </radialGradient>
        <radialGradient
          id="radialGradient2616"
          fx="466.42"
          xlink:href="#linearGradient2329"
          gradientUnits="userSpaceOnUse"
          cy="310.3"
          cx="569.25"
          gradientTransform="scale(1.0076 .99246)"
          r="240.95"
          inkscape:collect="always"
        />
        <linearGradient
          id="linearGradient2618"
          y2="243.36"
          gradientUnits="userSpaceOnUse"
          y1="-47.976"
          gradientTransform="scale(1.0079 .9922)"
          x2="558.65"
          x1="424.15"
          inkscape:collect="always"
        >
          <stop
            id="stop2409"
            style="stop-color:#900000;stop-opacity:.4"
            offset="0"
          />
          <stop
            id="stop2411"
            style="stop-color:#ffffff;stop-opacity:0"
            offset="1"
          />
        </linearGradient>
        <linearGradient
          id="linearGradient2620"
          y2="189.56"
          xlink:href="#linearGradient2329"
          gradientUnits="userSpaceOnUse"
          y1="189.56"
          gradientTransform="matrix(.3616 0 0 2.7655 -4 -2)"
          x2="550.62"
          x1="232.53"
          inkscape:collect="always"
        />
        <linearGradient
          id="linearGradient2622"
          y2="735.12"
          xlink:href="#linearGradient2329"
          gradientUnits="userSpaceOnUse"
          y1="319.24"
          gradientTransform="scale(.80281 1.2456)"
          x2="235.61"
          x1="634.17"
          inkscape:collect="always"
        />
      </defs>
      <sodipodi:namedview
        id="base"
        bordercolor="#666666"
        inkscape:pageshadow="2"
        inkscape:guide-bbox="true"
        pagecolor="#ffffff"
        inkscape:window-maximized="0"
        inkscape:window-width="674"
        inkscape:zoom="0.76874648"
        inkscape:window-x="0"
        showgrid="false"
        borderopacity="1.0"
        inkscape:current-layer="layer1"
        inkscape:cx="354.3908"
        inkscape:cy="516.45849"
        showguides="true"
        inkscape:window-y="0"
        inkscape:window-height="645"
        inkscape:pageopacity="0.0"
        inkscape:document-units="px"
      />
      <g
        id="layer1"
        inkscape:label="Layer 1"
        inkscape:groupmode="layer"
        transform="translate(-17.657 -8.7684)"
      >
        <g id="g2543" transform="matrix(1.0846,0,0,1.0846,-69.215,-14.85)">
          <path
            id="path2491"
            inkscape:connector-curvature="0"
            sodipodi:nodetypes="cccccc"
            style="fill-rule:evenodd;stroke:#000000;stroke-width:.23050pt;fill:#007200"
            d="m178.35 942.06s129.23-440.72 173.83-631.82c44.6-191.09 141.16-263.32 159.23-261.08 18.07 2.235-125.29 135.82-160.49 356.91-35.21 221.09-147.07 541.77-147.07 541.77l-25.5-5.78z"
          />
          <path
            id="path2523"
            inkscape:connector-curvature="0"
            sodipodi:nodetypes="cccccc"
            style="opacity:0.42;fill-rule:evenodd;fill:url(#linearGradient2576)"
            d="m178.35 942.06s132.91-440.72 177.51-631.82c44.6-191.09 142.55-260.9 153.39-258.39 10.45 2.424-126.81 134.97-162.01 356.06-35.21 221.09-143.39 539.93-143.39 539.93l-25.5-5.78z"
          />
          <path
            id="path2489"
            inkscape:connector-curvature="0"
            sodipodi:nodetypes="ccccccccc"
            style="fill-rule:evenodd;stroke:#000000;stroke-width:.23050pt;fill:#007200"
            d="m357.73 213.33s-96.11-3.21-114.48 31.22c-41.62 78.05-45.47 374.46-49.43 447.49-3.9 72.84-18.21 257.56-18.21 257.56l23.42 2.6s15.25-192.57 14.3-267.97c-0.84-66.98 14.31-377.24 40.33-418.86 25.65-41.04 106.67-28.62 106.67-28.62l-2.6-23.42z"
          />
          <g id="g2420" transform="matrix(.59347 0 0 .59347 200.77 20.376)">
            <path
              id="path2135"
              inkscape:connector-curvature="0"
              sodipodi:nodetypes="ccccccccc"
              style="fill-rule:evenodd;stroke:#000000;stroke-width:.38839pt;fill:url(#radialGradient2578)"
              d="m310.9 426.67s36.42 78.05 62.43 104.06c26.02 26.02 165.74 56.84 176.92 70.25 13 15.61 54.63 49.43 54.63 49.43s-2.6-59.84-5.2-88.46c-2.03-22.28-72.85-163.9-111.87-182.11-39.03-18.21-127.48-36.42-127.48-36.42s2.6 26.01-7.81 41.62c-10.4 15.61-41.62 41.63-41.62 41.63z"
            />
            <path
              id="path2359"
              inkscape:connector-curvature="0"
              sodipodi:nodetypes="ccccccccc"
              style="fill-rule:evenodd;fill:url(#linearGradient2580)"
              d="m310.9 426.67s49.43 75.45 75.44 101.46c26.02 26.02 152.73 49.03 163.91 62.44 13 15.61 46.83 41.63 46.83 41.63s-2.61-33.82-5.21-62.44c-2.02-22.29-67.64-153.5-106.66-171.71-39.03-18.21-124.88-54.63-124.88-54.63s2.6 26.01-7.81 41.62c-10.4 15.61-41.62 41.63-41.62 41.63z"
            />
            <path
              id="path2137"
              inkscape:connector-curvature="0"
              sodipodi:nodetypes="ccccccccc"
              style="fill-rule:evenodd;stroke:#000000;stroke-width:.38839pt;fill:url(#radialGradient2582)"
              d="m357.73 377.24s59.83 31.22 115.77 31.22c55.93 0 120.97-114.48 131.38-135.29s15.61-80.65 15.61-80.65-49.43 15.61-72.85 15.61c-23.41 0-61.13-13.01-98.86-2.6-37.72 10.41-104.06 65.04-104.06 65.04s23.41 33.82 23.41 49.43-10.4 57.24-10.4 57.24z"
            />
            <path
              id="path2363"
              inkscape:connector-curvature="0"
              sodipodi:nodetypes="ccccccccc"
              style="fill-rule:evenodd;fill:url(#linearGradient2584)"
              d="m357.73 377.24s52.03 26.01 107.96 26.01c55.94 0 120.98-111.87 131.39-132.68 10.4-20.81 18.21-72.85 18.21-72.85s-41.63 18.22-65.04 18.22c-23.42 0-58.54-13.01-96.26-2.61-37.73 10.41-109.27 57.24-109.27 57.24s23.41 33.82 23.41 49.43-10.4 57.24-10.4 57.24z"
            />
            <path
              id="path1295"
              inkscape:connector-curvature="0"
              sodipodi:nodetypes="ccccccccc"
              style="fill-rule:evenodd;stroke:#000000;stroke-width:.38839pt;fill:url(#radialGradient2586)"
              d="m282.28 405.86s-54.64 83.25-59.84 119.67 20.81 119.68 33.82 148.29c13.01 28.62 28.62 75.45 28.62 75.45s15.61-28.62 36.42-62.44c20.82-33.82 93.66-119.67 93.66-163.9s-52.03-117.07-52.03-117.07-23.42 13-41.63 10.4-39.02-10.4-39.02-10.4z"
            />
            <path
              id="path2355"
              inkscape:connector-curvature="0"
              sodipodi:nodetypes="ccccccccc"
              style="fill-rule:evenodd;fill:url(#linearGradient2588)"
              d="m286.65 426.67s-48.01 73.16-52.58 105.17c-4.58 32.01 18.29 105.17 29.72 130.32s25.15 66.3 25.15 66.3 13.72-25.15 32.01-54.87 82.3-105.17 82.3-144.04-45.72-102.88-45.72-102.88-20.58 11.43-36.58 9.14c-16.01-2.28-34.3-9.14-34.3-9.14z"
            />
            <path
              id="path1297"
              inkscape:connector-curvature="0"
              sodipodi:nodetypes="ccccccccc"
              style="fill-rule:evenodd;stroke:#000000;stroke-width:.38839pt;fill:url(#radialGradient2590)"
              d="m297.89 278.38s-23.42-98.87-23.42-117.08 10.58-77.648 27.32-93.657c29.92-28.618 48.13-65.041 48.13-65.041 0-0.0004 13.54 38.869 39.02 62.439 14.33 13.249 37.12 62.389 39.03 91.059 2.6 39.02-41.63 135.28-41.63 135.28s-20.81-23.41-39.02-23.41-49.43 10.41-49.43 10.41z"
            />
            <path
              id="path2367"
              inkscape:connector-curvature="0"
              sodipodi:nodetypes="ccccccccc"
              style="fill-rule:evenodd;fill:url(#linearGradient2592)"
              d="m304.62 261.8s-20.46-86.39-20.46-102.3c0-15.92 9.25-67.859 23.87-81.849 26.15-25.009 42.06-56.838 42.06-56.838s11.84 33.967 34.1 54.564c12.52 11.578 32.44 54.513 34.11 79.573 2.27 34.1-36.38 118.22-36.38 118.22s-18.19-20.46-34.1-20.46c-15.92 0-43.2 9.09-43.2 9.09z"
            />
            <path
              id="path1299"
              inkscape:connector-curvature="0"
              sodipodi:nodetypes="ccccccc"
              style="fill-rule:evenodd;stroke:#888888;stroke-width:1.5536;fill:url(#linearGradient2594)"
              d="m272.93 278.38 98.64-39.03s-19.73 20.81-17.53 101.46c2.19 80.66 21.92 106.67 21.92 106.67l-98.64-33.82s-24.12-7.8-26.31-62.44c-2.19-54.63 21.92-72.84 21.92-72.84z"
            />
            <g id="g2373">
              <path
                id="path2319"
                style="opacity:0.11;stroke:url(#linearGradient2596);stroke-width:97.098;stroke-linecap:round;fill:none"
                inkscape:connector-curvature="0"
                d="m288.6 388.8 73.21 8.09"
              />
              <path
                id="path2298"
                style="opacity:.075;stroke:url(#linearGradient2598);stroke-width:97.098;fill:none"
                inkscape:connector-curvature="0"
                d="m252.17 355.42h136.05"
              />
              <path
                id="path2315"
                style="opacity:0.07;stroke:url(#linearGradient2600);stroke-width:97.098;stroke-linecap:round;fill:none"
                inkscape:connector-curvature="0"
                d="m289.18 289.44 81.06-15.73"
              />
              <path
                id="path2311"
                style="opacity:0.09;stroke:url(#linearGradient2602);stroke-width:97.098;stroke-linecap:round;fill:none"
                inkscape:connector-curvature="0"
                d="m286.16 317.4h109.31"
              />
            </g>
            <path
              id="path2387"
              inkscape:connector-curvature="0"
              sodipodi:nodetypes="ccccccc"
              style="opacity:0.78;fill-rule:evenodd;fill:url(#linearGradient2604)"
              d="m276.98 284.88 88.78-35.12s-17.76 18.73-15.79 91.31c1.98 72.59 19.73 96.01 19.73 96.01l-88.77-30.44s-21.71-7.03-23.68-56.2 19.73-65.56 19.73-65.56z"
            />
            <path
              id="path1293"
              inkscape:connector-curvature="0"
              sodipodi:nodetypes="cccccccc"
              style="fill-rule:evenodd;stroke:#000000;stroke-width:.38839pt;fill:url(#radialGradient2606)"
              d="m249.76 361.63s-158.7 44.23-189.92 93.66c-31.222 49.43-41.629 119.67-41.629 119.67s97.009 8.14 137.89 5.21c58.02-4.18 106.67-33.83 127.48-75.45 20.81-41.63 15.61-80.65 15.61-80.65s-10.41-7.81-36.42-26.02c-10.41-31.22-13.01-36.42-13.01-36.42z"
            />
            <path
              id="path1291"
              inkscape:connector-curvature="0"
              sodipodi:nodetypes="ccccccccc"
              style="fill-rule:evenodd;stroke:#000000;stroke-width:.38839pt;fill:url(#radialGradient2608)"
              d="m5.2033 117.07s59.838-15.61 114.48-23.411c54.63-7.805 93.65 13.011 109.26 33.821s62.44 143.09 62.44 143.09-26.01 6.5-36.42 44.23c-10.41 37.72 2.6 59.84 2.6 59.84s-114.47-5.21-148.29-31.22c-33.823-26.02-98.863-78.05-88.457-132.69 10.407-54.63-15.61-93.66-15.61-93.66z"
            />
            <path
              id="path2325"
              inkscape:connector-curvature="0"
              sodipodi:nodetypes="ccccccccc"
              style="opacity:0.71;fill-rule:evenodd;fill:url(#linearGradient2610)"
              d="m18.807 125.75s53.313-13.91 101.99-20.86c48.67-6.956 83.44 11.59 97.35 30.13s55.63 127.49 55.63 127.49-23.18 5.79-32.45 39.4 2.32 53.31 2.32 53.31-101.99-4.63-132.13-27.81c-30.132-23.18-88.08-69.54-78.808-118.22 9.272-48.67-13.908-83.44-13.908-83.44z"
            />
            <path
              id="path2337"
              inkscape:connector-curvature="0"
              sodipodi:nodetypes="cccccccc"
              style="fill-rule:evenodd;fill:url(#linearGradient2612)"
              d="m235.7 377.77s-141.12 39.32-168.88 83.28c-27.762 43.96-37.016 106.42-37.016 106.42s86.256 7.24 122.62 4.63c51.6-3.71 94.85-30.08 113.36-67.09 18.51-37.02 13.88-71.72 13.88-71.72s-9.25-6.94-32.39-23.14c-9.25-27.76-11.57-32.38-11.57-32.38z"
            />
            <g id="g2415">
              <path
                id="path2113"
                style="color:#000000;fill:url(#radialGradient2614)"
                sodipodi:type="star"
                d="m607.42 364.32c-6.8931 4.0002-12.259 27.219-19.612 30.624-7.3537 3.405-36.473-3.036-44.371-1.3919-7.8978 1.6441-14.198 18.71-22.25 19.493-8.0523 0.78243-32.225-11.421-40.291-11.508-8.0655-0.0868-30.683 13.484-38.523 11.742-7.8401-1.7419-14.404-20.865-21.975-23.375-7.5705-2.5104-28.373-2.3118-35.411-6.4282-7.0378-4.1163-7.0598-18.594-13.258-23.503-6.1981-4.9091-41.395-9.5465-47.122-15.033-5.7271-5.4868-6.2154-29.986-11.233-36.419-5.0175-6.4329-25.903-6.183-29.37-13.494-3.467-7.3113 2.7057-43.116 0.0448-50.598-2.6608-7.4816-14.48-21.158-16.297-29.011-1.8174-7.8534 15.063-20.668 14.917-28.694-0.14549-8.0254-24.308-23.72-23.351-31.771 0.95718-8.0513 27.371-30.811 29.745-38.612 2.3738-7.8013-19.461-21.625-16.228-29.038 3.2333-7.413 37.276-19.487 41.797-26.128 4.5206-6.6407-1.9967-25.245 3.2071-31.371 5.2038-6.1257 33.004-7.4543 38.949-12.753 5.9453-5.299 12.641-37.312 19.306-41.845 6.6652-4.5326 32.543 7.4218 39.848 4.1644 7.3055-3.2574 18.447-35.588 26.244-37.803 7.7964-2.2147 19.111 20.528 27.002 19.588 7.8918-0.93992 25.068-17.003 33.063-16.649 7.9955 0.35459 22.605 23.04 30.648 24.417 8.0432 1.3769 30.039-10.599 37.608-7.9459s23.802 23.479 30.921 27.325c7.1189 3.8455 23.765-1.1328 29.989 3.8774 6.2238 5.0102 9.1816 26.566 14.878 32.271 5.696 5.7058 44.999 7.2727 49.556 14.031s-3.9877 35.312-0.16624 42.399c3.8215 7.0876 17.509 7.872 19.815 15.488 2.3062 7.6161-2.6743 32.405-1.4742 40.269 1.2001 7.8635 24.257 22.937 24.728 31.015 0.47086 8.0776-32.847 33.648-33.455 41.602-0.6087 7.9541 27.734 21.852 25.469 29.53-2.2651 7.6778-30.856 15.006-33.981 22.397-3.1243 7.3916 5.781 43.694 1.2919 50.289-4.4892 6.5947-34.117 0.0544-39.583 5.7934-5.4656 5.739 0.32849 33.244-6.0459 38.274-6.3744 5.0298-38.139 4.7787-45.032 8.7789z"
                sodipodi:r1="216.82899"
                sodipodi:r2="238.27361"
                sodipodi:arg1="1.0191413"
                sodipodi:arg2="1.168741"
                transform="matrix(.39008 0 0 .53855 219.9 248.09)"
                inkscape:randomized="0.032"
                sodipodi:cy="179.51295"
                sodipodi:cx="495.61185"
                inkscape:rounded="0.2"
                inkscape:flatsided="false"
                sodipodi:sides="21"
              />
              <path
                id="path2391"
                style="color:#000000;fill:url(#radialGradient2616)"
                sodipodi:type="star"
                d="m607.42 364.32c-6.8931 4.0002-12.259 27.219-19.612 30.624-7.3537 3.405-36.473-3.036-44.371-1.3919-7.8978 1.6441-14.198 18.71-22.25 19.493-8.0523 0.78243-32.225-11.421-40.291-11.508-8.0655-0.0868-30.683 13.484-38.523 11.742-7.8401-1.7419-14.404-20.865-21.975-23.375-7.5705-2.5104-28.373-2.3118-35.411-6.4282-7.0378-4.1163-7.0598-18.594-13.258-23.503-6.1981-4.9091-41.395-9.5465-47.122-15.033-5.7271-5.4868-6.2154-29.986-11.233-36.419-5.0175-6.4329-25.903-6.183-29.37-13.494-3.467-7.3113 2.7057-43.116 0.0448-50.598-2.6608-7.4816-14.48-21.158-16.297-29.011-1.8174-7.8534 15.063-20.668 14.917-28.694-0.14549-8.0254-24.308-23.72-23.351-31.771 0.95718-8.0513 27.371-30.811 29.745-38.612 2.3738-7.8013-19.461-21.625-16.228-29.038 3.2333-7.413 37.276-19.487 41.797-26.128 4.5206-6.6407-1.9967-25.245 3.2071-31.371 5.2038-6.1257 33.004-7.4543 38.949-12.753 5.9453-5.299 12.641-37.312 19.306-41.845 6.6652-4.5326 32.543 7.4218 39.848 4.1644 7.3055-3.2574 18.447-35.588 26.244-37.803 7.7964-2.2147 19.111 20.528 27.002 19.588 7.8918-0.93992 25.068-17.003 33.063-16.649 7.9955 0.35459 22.605 23.04 30.648 24.417 8.0432 1.3769 30.039-10.599 37.608-7.9459s23.802 23.479 30.921 27.325c7.1189 3.8455 23.765-1.1328 29.989 3.8774 6.2238 5.0102 9.1816 26.566 14.878 32.271 5.696 5.7058 44.999 7.2727 49.556 14.031s-3.9877 35.312-0.16624 42.399c3.8215 7.0876 17.509 7.872 19.815 15.488 2.3062 7.6161-2.6743 32.405-1.4742 40.269 1.2001 7.8635 24.257 22.937 24.728 31.015 0.47086 8.0776-32.847 33.648-33.455 41.602-0.6087 7.9541 27.734 21.852 25.469 29.53-2.2651 7.6778-30.856 15.006-33.981 22.397-3.1243 7.3916 5.781 43.694 1.2919 50.289-4.4892 6.5947-34.117 0.0544-39.583 5.7934-5.4656 5.739 0.32849 33.244-6.0459 38.274-6.3744 5.0298-38.139 4.7787-45.032 8.7789z"
                sodipodi:r1="216.82899"
                sodipodi:r2="238.27361"
                sodipodi:arg1="1.0191413"
                sodipodi:arg2="1.168741"
                transform="matrix(.34693 0 0 .47898 241.43 258.66)"
                inkscape:randomized="0.032"
                sodipodi:cy="179.51295"
                sodipodi:cx="495.61185"
                inkscape:rounded="0.2"
                inkscape:flatsided="false"
                sodipodi:sides="21"
              />
              <path
                id="path2403"
                style="opacity:0.57;color:#000000;fill:url(#linearGradient2618)"
                sodipodi:type="star"
                d="m607.42 364.32c-6.8931 4.0002-12.259 27.219-19.612 30.624-7.3537 3.405-36.473-3.036-44.371-1.3919-7.8978 1.6441-14.198 18.71-22.25 19.493-8.0523 0.78243-32.225-11.421-40.291-11.508-8.0655-0.0868-30.683 13.484-38.523 11.742-7.8401-1.7419-14.404-20.865-21.975-23.375-7.5705-2.5104-28.373-2.3118-35.411-6.4282-7.0378-4.1163-7.0598-18.594-13.258-23.503-6.1981-4.9091-41.395-9.5465-47.122-15.033-5.7271-5.4868-6.2154-29.986-11.233-36.419-5.0175-6.4329-25.903-6.183-29.37-13.494-3.467-7.3113 2.7057-43.116 0.0448-50.598-2.6608-7.4816-14.48-21.158-16.297-29.011-1.8174-7.8534 15.063-20.668 14.917-28.694-0.14549-8.0254-24.308-23.72-23.351-31.771 0.95718-8.0513 27.371-30.811 29.745-38.612 2.3738-7.8013-19.461-21.625-16.228-29.038 3.2333-7.413 37.276-19.487 41.797-26.128 4.5206-6.6407-1.9967-25.245 3.2071-31.371 5.2038-6.1257 33.004-7.4543 38.949-12.753 5.9453-5.299 12.641-37.312 19.306-41.845 6.6652-4.5326 32.543 7.4218 39.848 4.1644 7.3055-3.2574 18.447-35.588 26.244-37.803 7.7964-2.2147 19.111 20.528 27.002 19.588 7.8918-0.93992 25.068-17.003 33.063-16.649 7.9955 0.35459 22.605 23.04 30.648 24.417 8.0432 1.3769 30.039-10.599 37.608-7.9459s23.802 23.479 30.921 27.325c7.1189 3.8455 23.765-1.1328 29.989 3.8774 6.2238 5.0102 9.1816 26.566 14.878 32.271 5.696 5.7058 44.999 7.2727 49.556 14.031s-3.9877 35.312-0.16624 42.399c3.8215 7.0876 17.509 7.872 19.815 15.488 2.3062 7.6161-2.6743 32.405-1.4742 40.269 1.2001 7.8635 24.257 22.937 24.728 31.015 0.47086 8.0776-32.847 33.648-33.455 41.602-0.6087 7.9541 27.734 21.852 25.469 29.53-2.2651 7.6778-30.856 15.006-33.981 22.397-3.1243 7.3916 5.781 43.694 1.2919 50.289-4.4892 6.5947-34.117 0.0544-39.583 5.7934-5.4656 5.739 0.32849 33.244-6.0459 38.274-6.3744 5.0298-38.139 4.7787-45.032 8.7789z"
                sodipodi:r1="216.82899"
                sodipodi:r2="238.27361"
                sodipodi:arg1="1.0191413"
                sodipodi:arg2="1.168741"
                transform="matrix(.34693 0 0 .47898 241.43 258.66)"
                inkscape:randomized="0.032"
                sodipodi:cy="179.51295"
                sodipodi:cx="495.61185"
                inkscape:rounded="0.2"
                inkscape:flatsided="false"
                sodipodi:sides="21"
              />
            </g>
          </g>
          <path
            id="path2493"
            inkscape:connector-curvature="0"
            sodipodi:nodetypes="cccccc"
            style="fill-rule:evenodd;stroke:#000000;stroke-width:.23050pt;fill:#007200"
            d="m168.93 959.3s-28.62-239.35-28.62-431.87c0-196.23-75.446-444.88-57.234-444.88 18.214 0.003 85.824 249.64 88.454 473.5 2.6 221.14 23.42 405.86 23.42 405.86l-26.02-2.61z"
          />
          <path
            id="path2495"
            inkscape:connector-curvature="0"
            sodipodi:nodetypes="cccccc"
            style="fill-rule:evenodd;stroke:#000000;stroke-width:.23050pt;fill:#007200"
            d="m192.19 961.43s56.96-217.55 158.82-385.27c101.85-167.73 185.61-206.05 202.09-198.3 16.49 7.74-72.83 8.96-175.09 208.12s-157.87 385.2-163.39 388.88l-22.43-13.43z"
          />
          <path
            id="path2499"
            inkscape:connector-curvature="0"
            sodipodi:nodetypes="cccccc"
            style="opacity:0.285;fill-rule:evenodd;fill:url(#linearGradient2620)"
            d="m168.93 959.3s-23.1-239.35-23.1-431.87c0-196.23-73.463-439.8-60.914-437.52 14.41 2.628 78.464 240.44 81.094 464.3 2.6 221.14 28.94 407.7 28.94 407.7l-26.02-2.61z"
          />
          <path
            id="path2533"
            inkscape:connector-curvature="0"
            sodipodi:nodetypes="cccccc"
            style="opacity:0.52;fill-rule:evenodd;fill:url(#linearGradient2622)"
            d="m197.71 954.08s54.04-206.3 155.9-374.02c96.65-162.52 176.51-204.75 191.69-199.6 16.48 7.75-70.23 7.66-172.49 206.82s-147.15 376.54-152.67 380.22l-22.43-13.42z"
          />
        </g>
      </g>
      <metadata id="metadata81">
        <rdf:RDF>
          <cc:Work>
            <dc:format>image/svg+xml</dc:format>
            <dc:type rdf:resource="http://purl.org/dc/dcmitype/StillImage" />
            <cc:license rdf:resource="http://creativecommons.org/licenses/publicdomain/" />
            <dc:publisher>
              <cc:Agent rdf:about="http://openclipart.org/">
                <dc:title>Openclipart</dc:title>
              </cc:Agent>
            </dc:publisher>
          </cc:Work>
          <cc:License rdf:about="http://creativecommons.org/licenses/publicdomain/">
            <cc:permits rdf:resource="http://creativecommons.org/ns#Reproduction" />
            <cc:permits rdf:resource="http://creativecommons.org/ns#Distribution" />
            <cc:permits rdf:resource="http://creativecommons.org/ns#DerivativeWorks" />
          </cc:License>
        </rdf:RDF>
      </metadata>
    </svg>

