<?xml version="1.0" encoding="UTF-8" standalone="no"?>
<!-- Created with Inkscape (http://www.inkscape.org/) -->
<svg xmlns:inkscape="http://www.inkscape.org/namespaces/inkscape" xmlns:rdf="http://www.w3.org/1999/02/22-rdf-syntax-ns#" xmlns="http://www.w3.org/2000/svg" xmlns:xlink="http://www.w3.org/1999/xlink" xmlns:ns1="http://sozi.baierouge.fr" xmlns:cc="http://creativecommons.org/ns#" xmlns:sodipodi="http://sodipodi.sourceforge.net/DTD/sodipodi-0.dtd" xmlns:dc="http://purl.org/dc/elements/1.1/" id="svg2" xml:space="preserve" viewBox="0 0 42.75 42.75" version="1.1" inkscape:version="0.91 r13725">
  <defs id="defs6">
    <radialGradient id="radialGradient26" gradientUnits="userSpaceOnUse" cy="-10.218" cx="31.626" gradientTransform="matrix(.49952 -.62488 .44768 .37888 11.138 43.475)" r="14.674">
      <stop id="stop28" style="stop-color:#ffffff" offset="0"/>
      <stop id="stop30" style="stop-color:#cf80f9" offset=".98820"/>
      <stop id="stop32" style="stop-color:#cf80f9" offset="1"/>
    </radialGradient>
    <linearGradient id="linearGradient64" y2="28.921" gradientUnits="userSpaceOnUse" x2="-4.0927" gradientTransform="matrix(.62568 .49848 .5152 -.6124 .32038 34.32)" y1="28.921" x1="-9.9102">
      <stop id="stop66" style="stop-color:#596c0a" offset="0"/>
      <stop id="stop68" style="stop-color:#a7ca1c" offset="1"/>
    </linearGradient>
  </defs>
  <g id="g10" transform="matrix(1.25 0 0 -1.25 0 42.75)">
    <g id="g12">
      <path id="path14" style="fill-rule:evenodd;fill:#b168e1" d="m25.238 28.438c-0.211-0.558-0.476-1.226-0.797-2 0.371 0.321 0.731 0.629 1.079 0.922v-0.039c-0.454-0.586-1-1.199-1.641-1.84-0.027 0.051-0.039 0.227-0.039 0.52 0.055 0.453 0.094 0.734 0.121 0.84 0.105 0.293 0.293 0.664 0.559 1.121 0.265 0.476 0.453 0.851 0.558 1.117 0.215 0.641 0.43 1.121 0.641 1.441l0.043 0.078c0.078-0.05 0.133-0.132 0.16-0.238 0.078-0.16 0.066-0.347-0.043-0.558-0.051-0.137-0.133-0.297-0.238-0.481l-0.039-0.082c-0.028-0.027-0.043-0.051-0.043-0.078-0.024-0.106-0.079-0.215-0.161-0.32l-0.16-0.403zm-6.316-2.16-0.043-0.316v-0.403c-0.027 0.055-0.067 0.188-0.117 0.403-0.215 0.613-0.375 1.078-0.481 1.398l-0.242 0.641c0.055-0.082 0.121-0.16 0.199-0.242l0.082-0.079 0.399-0.921 0.16-0.637 0.043 0.156zm2.316 3.203-0.078-0.32c-0.027-0.055-0.055-0.106-0.082-0.16v-0.039c0-0.059-0.027-0.137-0.078-0.242v-0.04h-0.039c-0.293-0.773-0.469-1.281-0.52-1.519-0.054-0.133-0.093-0.254-0.121-0.359l-0.16 0.277c-0.027 0.082-0.039 0.254-0.039 0.519l0.078 0.524c0.028 0.531 0.067 0.918 0.121 1.156 0.239 0.91 0.375 1.375 0.399 1.402 0.109 0.293 0.308 0.586 0.601 0.879l0.399 0.243c-0.024-0.348-0.133-0.895-0.321-1.641 0-0.188-0.05-0.414-0.16-0.68z" inkscape:connector-curvature="0"/>
      <g id="g16">
        <g id="g18">
          <g id="g24">
            <path id="path34" style="fill-rule:evenodd;fill:url(#radialGradient26)" d="m21 28.72c0.051 0.105 0.078 0.183 0.078 0.242v-0.121c-0.023-0.028-0.051-0.067-0.078-0.121zm-1.121-4.36c-0.027-0.055-0.039-0.121-0.039-0.199-0.028-0.242-0.078-0.426-0.16-0.563 0.242 0.161 0.441 0.508 0.601 1.043 0.184 0.774 0.293 1.172 0.321 1.2 0.531 1.254 1.199 2.226 2 2.918 0.05 0.054 0.105 0.082 0.16 0.082 0.105 0.105 0.238 0.214 0.398 0.32 0.16 0.16 0.348 0.32 0.559 0.48 0.453 0.372 0.855 0.653 1.203 0.84 0.211 0.16 0.383 0.239 0.519 0.239 0.133 0.027 0.239-0.012 0.321-0.122l-0.043-0.078c-0.211-0.32-0.426-0.8-0.641-1.441-0.105-0.266-0.293-0.641-0.558-1.117-0.266-0.453-0.454-0.828-0.559-1.121-0.027-0.106-0.066-0.387-0.121-0.84 0-0.293 0.015-0.469 0.039-0.52 0.641 0.641 1.187 1.25 1.641 1.84v0.039c0.242 0.215 0.48 0.387 0.718 0.52 0.215 0.187 0.43 0.332 0.641 0.441 0.988 0.586 1.629 0.641 1.922 0.16 0.054-0.082 0.078-0.386 0.078-0.922v-0.757c-0.051-0.481-0.117-0.922-0.199-1.321-0.078-0.347-0.2-0.656-0.36-0.922l-0.519-0.879-1.602-1.48c-0.105-0.105-0.199-0.187-0.277-0.238-0.11-0.11-0.16-0.203-0.16-0.282 0.316 0.188 0.84 0.387 1.558 0.598 0.16 0.027 0.375 0.137 0.641 0.32 0.211 0.11 0.586 0.254 1.117 0.442 0.934 0.375 1.856 0.988 2.762 1.84-0.028-0.078-0.039-0.172-0.039-0.282-0.16-0.585-0.535-1.199-1.121-1.839h-0.078l-1.243-0.957c-0.531-0.27-0.933-0.481-1.199-0.641-0.558-0.133-0.949-0.281-1.16-0.441 0.348-0.079 0.602-0.094 0.762-0.04 0.211 0.028 0.586 0.079 1.117 0.161 0.453 0.078 0.816 0.148 1.082 0.199l1.68 0.441-0.082-0.082c-0.797-0.801-1.414-1.371-1.84-1.719l-0.16-0.121c-0.532-0.293-0.93-0.492-1.2-0.597-0.265-0.082-0.664-0.149-1.199-0.203l0.238 0.32c-0.105 0-0.238-0.039-0.398-0.117-0.133-0.137-0.238-0.203-0.32-0.203l-0.118-0.079h-0.203c-0.238-0.027-0.398-0.082-0.48-0.16 0.027-0.027 0.082-0.054 0.16-0.082l-0.359-0.16c-0.293-0.078-0.547-0.144-0.758-0.199-0.055 0.027-0.121 0.043-0.199 0.043h-0.684l0.082 0.078c0.106 0.055 0.215 0.133 0.32 0.238l1.282 1.043c0.105 0.106 0.316 0.25 0.636 0.438-0.211-0.024-0.425-0.051-0.636-0.078l0.039 0.039 0.437 0.8c-0.211-0.214-0.679-0.519-1.398-0.921-0.348 0-0.696 0.015-1.039 0.043-0.133 0.023-0.254 0.023-0.36 0l0.039 0.039c0.239 0.238 0.387 0.425 0.438 0.558 0.348 0.481 0.535 0.84 0.562 1.082-0.214-0.109-0.496-0.281-0.839-0.519-0.106-0.082-0.2-0.149-0.282-0.203 0.426 1.519 0.735 2.468 0.922 2.839l0.16 0.243c-0.882-0.746-1.507-1.442-1.882-2.082-0.2-0.403-0.375-0.719-0.52-0.938l-0.039-0.019c-0.02-0.032-0.039-0.055-0.063-0.082h-0.019l-0.399-0.321 0.079 0.281c-0.051-0.082-0.094-0.175-0.118-0.281l-0.043-0.039-0.16-0.16 0.043 0.32c0.184 0.719 0.426 1.305 0.719 1.758-0.238-0.023-0.465-0.156-0.68-0.398l0.078 0.64c0.055 0.586 0.11 1.106 0.161 1.559 0 0.027 0.015 0.055 0.043 0.082 0.05 0.051 0.093 0.117 0.117 0.199-0.024 0-0.067-0.015-0.117-0.039 0.105 0.774 0.199 1.332 0.277 1.68l0.32 0.961-0.32-0.321-0.559-0.839c-0.16-0.321-0.242-0.536-0.242-0.641-0.105-0.426-0.238-0.773-0.398-1.039l-0.078-0.481c-0.028-0.027-0.055-0.054-0.082-0.082-0.133-0.105-0.282-0.304-0.442-0.597-0.183-0.27-0.332-0.453-0.437-0.563l-0.039 0.039v0.043c-0.082 0.16-0.094 0.414-0.043 0.758 0.027 0.188 0.054 0.336 0.082 0.441 0 0.106 0.011 0.2 0.039 0.282l0.121 0.238 0.078 0.16zm10.16-5.922c-1.305-1.066-2.652-1.746-4.039-2.039l-0.238-0.039h-0.043l-0.199-0.039 0.082 0.039h-0.282l0.719 0.602c0.426 0.343 0.668 0.57 0.723 0.679l-0.403 0.118c0.082 0.109 0.176 0.203 0.282 0.281 0.027 0.055 0.078 0.105 0.16 0.16 0.027 0.027 0.039 0.055 0.039 0.078 0.64-0.183 1.265-0.238 1.883-0.156 0.343 0 0.679 0.023 1 0.078l0.316 0.238zm-5.359-2.359 1.398-0.277c-0.211-0.028-0.437-0.028-0.68 0-0.636 0.078-1.117 0.132-1.437 0.16l0.039 0.039c0.078 0.027 0.145 0.051 0.199 0.078 0.082-0.027 0.16-0.039 0.242-0.039l0.239 0.039zm-5.961 7.801c-0.133-0.215-0.239-0.453-0.321-0.719-0.293 1.867-0.476 3.254-0.558 4.16-0.051 0.399 0.015 0.625 0.199 0.68l0.242-0.641c0.106-0.32 0.266-0.785 0.481-1.398 0.05-0.215 0.093-0.348 0.117-0.403v0.403l0.043 0.316 0.039 0.203c0.348 1.492 0.625 2.52 0.84 3.078 0.453 1.121 1.094 1.868 1.918 2.243l-0.399-0.243c-0.293-0.293-0.492-0.586-0.601-0.879-0.024-0.027-0.16-0.492-0.399-1.402-0.054-0.238-0.093-0.625-0.121-1.156l-0.078-0.524c0-0.265 0.012-0.437 0.039-0.519l0.16-0.277c-0.16-0.59-0.281-1.11-0.359-1.563-0.106-0.078-0.266-0.211-0.481-0.398v0.519c0.051 0.586 0.067 0.961 0.04 1.121-0.028-0.027-0.145-0.242-0.36-0.64-0.238-0.586-0.387-1.243-0.441-1.961z" inkscape:connector-curvature="0"/>
          </g>
        </g>
      </g>
      <path id="path36" style="fill-rule:evenodd;fill:#8c5dab" d="m26.879 28.321c-0.211-0.109-0.426-0.254-0.641-0.441l-0.039 0.039c-0.16 0.293-0.48 0.469-0.961 0.519l0.16 0.403c0.082 0.105 0.137 0.214 0.161 0.32 0.109 0.051 0.226 0.066 0.363 0.039 0.316 0 0.57-0.121 0.758-0.359 0.082-0.133 0.148-0.309 0.199-0.52zm1.801-2.84c0.082 0.399 0.148 0.84 0.199 1.321 0.16-0.082 0.309-0.27 0.441-0.563 0.266-0.48 0.442-0.879 0.52-1.199-0.293-0.188-0.559-0.387-0.801-0.602v0.043c0.027 0.293 0 0.52-0.078 0.68-0.082 0.105-0.176 0.211-0.281 0.32zm-7.602 3.36v0.16c0.027 0.051 0.055 0.105 0.082 0.16l0.078 0.32c1.309 1.012 2.094 1.266 2.364 0.758-0.082-0.051-0.122-0.144-0.122-0.277l-0.082-0.321c-0.05-0.109-0.132-0.269-0.238-0.48-0.16-0.106-0.293-0.215-0.398-0.32-0.055 0.054-0.082 0.093-0.082 0.121-0.16 0.105-0.348 0.172-0.559 0.199-0.242 0.051-0.426 0.051-0.562 0-0.133-0.027-0.293-0.133-0.481-0.32zm0.402-8.442-0.082-0.039 0.043 0.039h0.039z" inkscape:connector-curvature="0"/>
      <path id="path38" style="fill-rule:evenodd;fill:#644677" d="m25.52 27.36c-0.348-0.293-0.708-0.601-1.079-0.922 0.321 0.774 0.586 1.442 0.797 2 0.481-0.05 0.801-0.226 0.961-0.519l0.039-0.039c-0.238-0.133-0.476-0.305-0.718-0.52zm3.519-2.922c-0.48-0.371-0.945-0.746-1.398-1.117l0.16 0.359 0.519 0.879c0.16 0.266 0.282 0.575 0.36 0.922 0.105-0.109 0.199-0.215 0.281-0.32 0.078-0.16 0.105-0.387 0.078-0.68v-0.043zm-9.16-0.078 0.402 0.961c-0.109 0-0.215-0.027-0.32-0.082 0.078 0.453 0.199 0.973 0.359 1.563 0.028 0.105 0.067 0.226 0.121 0.359 0.051 0.238 0.227 0.746 0.52 1.519h0.039v0.04c0.027 0.054 0.055 0.093 0.078 0.121 0.188 0.187 0.348 0.293 0.481 0.32 0.136 0.051 0.32 0.051 0.562 0 0.211-0.027 0.399-0.094 0.559-0.199 0-0.028 0.027-0.067 0.082-0.121-0.055 0-0.11-0.028-0.16-0.082-0.801-0.692-1.469-1.664-2-2.918-0.028-0.028-0.137-0.426-0.321-1.2-0.16-0.535-0.359-0.882-0.601-1.043 0.082 0.137 0.132 0.321 0.16 0.563 0 0.078 0.015 0.144 0.039 0.199zm1.601-3.961h-0.039c0.024 0.106 0.067 0.199 0.118 0.281l-0.079-0.281z" inkscape:connector-curvature="0"/>
      <path id="path40" style="fill-rule:evenodd;fill:#eaccfd" d="m31.84 24.88c-0.906-0.852-1.828-1.465-2.762-1.84-0.531-0.188-0.906-0.332-1.117-0.442-0.266-0.183-0.481-0.293-0.641-0.32-0.718-0.211-1.242-0.41-1.558-0.598 0 0.079 0.05 0.172 0.16 0.282 0.078 0.051 0.172 0.133 0.277 0.238l1.602 1.48-0.16-0.359c0.453 0.371 0.918 0.746 1.398 1.117 0.242 0.215 0.508 0.414 0.801 0.602 0.265 0.238 0.547 0.465 0.84 0.68 0.402 0.265 0.679 0.375 0.84 0.32 0.027 0 0.054-0.012 0.082-0.039 0.32-0.188 0.398-0.547 0.238-1.082v-0.039zm-0.199-3.399-1.68-0.441c-0.266-0.051-0.629-0.121-1.082-0.199-0.531-0.082-0.906-0.133-1.117-0.161-0.16-0.054-0.414-0.039-0.762 0.04 0.215 0.16 0.602 0.308 1.16 0.441 0.266 0.16 0.668 0.371 1.199 0.641l1.243 0.957h0.078l-0.399-0.399c0.692 0.055 1.254-0.055 1.68-0.32 0-0.16-0.106-0.348-0.32-0.559zm-6.961-5.402c0.16 0.027 0.375 0.121 0.64 0.281h0.282l-0.082-0.039 0.199 0.039h0.043l0.277-0.039h0.039c0.242-0.027 0.442-0.094 0.602-0.199-0.106-0.109-0.227-0.188-0.36-0.242-0.082-0.028-0.148-0.055-0.199-0.078h-0.043l-1.398 0.277zm5.359 2.359-0.32-0.238c-0.321-0.055-0.653-0.078-1-0.078-0.614-0.082-1.239-0.027-1.879 0.156 0.105 0.16 0.215 0.32 0.32 0.481 0.531 0.054 0.934 0.121 1.199 0.203 0.266 0.105 0.668 0.304 1.2 0.597 0.425 0.106 0.746 0.028 0.961-0.238 0.16-0.215 0.16-0.402 0-0.562-0.215-0.161-0.375-0.266-0.481-0.321zm-3.48 0.242-0.52-0.242c-0.078 0.028-0.133 0.055-0.16 0.082 0.082 0.078 0.242 0.133 0.48 0.16h0.2z" inkscape:connector-curvature="0"/>
      <path id="path42" style="fill-rule:evenodd;fill:#cf8bfb" d="m19.48 24.841c-0.105-0.133-0.226-0.282-0.359-0.442-0.16-0.16-0.293-0.332-0.402-0.519 0.054 0.718 0.203 1.375 0.441 1.961 0.215 0.398 0.332 0.613 0.36 0.64 0.027-0.16 0.015-0.535-0.04-1.121v-0.519zm2.122-0.52c-0.243-0.055-0.575-0.281-1-0.68l0.078 0.481c0.16 0.266 0.293 0.613 0.398 1.039 0 0.105 0.082 0.32 0.242 0.641l0.559 0.839 0.32 0.321-0.32-0.961c-0.078-0.348-0.172-0.906-0.277-1.68zm-1.082-3.68 0.082 0.918c0.023 0.293 0.093 0.586 0.199 0.879v0.082c0.051 0.133 0.094 0.254 0.121 0.36l0.156 0.359c0.137 0.293 0.297 0.574 0.481 0.84-0.051-0.453-0.106-0.973-0.161-1.559l-0.078-0.64c-0.082-0.055-0.16-0.133-0.242-0.239-0.266-0.375-0.453-0.746-0.558-1.121v0.121zm1.441 0.161-0.039-0.082h-0.024c0.024 0.027 0.043 0.05 0.063 0.082zm1.359-0.043c-0.293-0.211-0.492-0.344-0.601-0.399l-0.16-0.121c0.054 0.293 0.093 0.547 0.121 0.762 0.054 0.238 0.132 0.414 0.242 0.519l-0.242-0.16-0.68-0.539c0.145 0.219 0.316 0.535 0.52 0.938 0.375 0.64 1 1.336 1.878 2.082l-0.16-0.243c-0.183-0.371-0.492-1.32-0.918-2.839zm0.078-0.957c0.11 0.023 0.227 0.023 0.364 0 0.343-0.028 0.691-0.043 1.039-0.043-0.082-0.024-0.176-0.079-0.281-0.161-0.239-0.132-0.442-0.253-0.598-0.359-0.082-0.027-0.149-0.051-0.203-0.078-0.399-0.16-0.746-0.148-1.039 0.039l-0.039 0.039c0.105 0.106 0.359 0.293 0.757 0.563zm0.723-1.801h-0.359c0.027 0 0.05 0.012 0.078 0.039 0.082 0.027 0.148 0.055 0.199 0.082h0.68c0.082 0 0.148-0.016 0.203-0.043-0.242-0.051-0.402-0.094-0.481-0.117l-0.32 0.039zm1.598 1.758v0.082c0.215 0.027 0.426 0.054 0.64 0.078-0.32-0.184-0.531-0.332-0.64-0.438l-1.278-1.043c-0.109-0.105-0.214-0.183-0.32-0.238 0.106 0.078 0.211 0.199 0.32 0.359 0.161 0.106 0.371 0.266 0.637 0.481 0.242 0.16 0.414 0.348 0.524 0.558l0.117 0.161zm0.64-2 0.403-0.118c-0.055-0.109-0.297-0.336-0.723-0.679l-0.719-0.602c-0.265-0.16-0.48-0.254-0.64-0.281l-0.239-0.039c-0.082 0-0.16 0.015-0.242 0.039 0.188 0.109 0.403 0.254 0.641 0.441l0.961 0.758c0.187 0.16 0.371 0.32 0.558 0.481z" inkscape:connector-curvature="0"/>
      <path id="path44" style="fill-rule:evenodd;fill:#86a214" d="m18.199 13.641c-0.023 0-0.051-0.015-0.078-0.043 0.055 0.055 0.106 0.122 0.16 0.204-0.027-0.055-0.054-0.11-0.082-0.161zm-15.64-7.363c0.16 0.215 0.347 0.43 0.562 0.641-0.082-0.106-0.176-0.371-0.281-0.797 0-0.055-0.051-0.16-0.16-0.32-0.055-0.11-0.055-0.215 0-0.321 0.082-0.133 0.254-0.176 0.519-0.121 0.215 0.082 0.469 0.254 0.762 0.52 0.293 0.32 0.504 0.519 0.641 0.601 0.023-0.133 0.011-0.336-0.043-0.601-0.481-0.371-0.84-0.641-1.079-0.801-0.214-0.133-0.386-0.156-0.519-0.078-0.133 0.133-0.242 0.265-0.32 0.398-0.082 0.028-0.133 0.055-0.161 0.082l0.161-0.039-0.121 0.278 0.16 0.281-0.16-0.121 0.039 0.398zm2 1.922c-0.426-0.32-0.786-0.602-1.079-0.84 0.133 0.133 0.282 0.254 0.442 0.36 0.156 0.16 0.371 0.32 0.637 0.48zm0.8-1.719 0.403 0.399c0.211 0.215 0.359 0.386 0.437 0.519 0.028 0.082 0.055 0.133 0.082 0.16 0-0.214 0.051-0.304 0.16-0.281 0.106 0.027 0.184 0.11 0.239 0.242 0 0.051 0.027 0.227 0.082 0.52 0 0.16 0.05 0.215 0.16 0.16 0.183-0.109 0.266-0.293 0.238-0.562 0.106 0.375 0.32 0.734 0.641 1.082 0.344 0.375 1.078 0.812 2.199 1.32 0.348 0.16 0.68 0.293 1 0.398l-0.48-0.64 1.601 0.722c0.133 0.106 0.266 0.211 0.399 0.317 0.105 0.082 0.199 0.16 0.281 0.242 0.027 0.027 0.051 0.039 0.078 0.039 0.773 0.215 1.469 0.492 2.082 0.84 0.504 0.269 1.105 0.719 1.801 1.359 0.773 0.641 1.039 1.082 0.797 1.321 0.586 0.613 1.175 1.281 1.761 2l-0.16-0.239-0.519-0.601c-0.055-0.586-0.36-1.172-0.922-1.758-0.746-0.856-1.305-1.469-1.68-1.84-0.613-0.641-1.387-1.16-2.32-1.562-2.614-0.985-4.145-1.665-4.598-2.04-0.508-0.371-0.816-0.613-0.922-0.718-0.265-0.215-0.504-0.492-0.719-0.84-0.214-0.348-0.519-0.762-0.921-1.238l-0.52-0.641 0.359 1.961c-0.636-0.961-1.16-1.574-1.558-1.844l-0.121-0.117v0.039c0.109 0.188 0.226 0.48 0.359 0.879 0.11 0.082 0.16 0.16 0.16 0.242 0.055 0.078 0.094 0.133 0.121 0.16zm14.403 10.84h-0.121v0.039l0.121-0.039zm-0.524 1.438c-0.343 0.507-0.57 0.679-0.679 0.519-0.079 0.16-0.133 0.348-0.161 0.563 0.11-0.082 0.27-0.188 0.481-0.321 0.055-0.054 0.176-0.308 0.359-0.761zm1.684-0.84-0.684-0.438-0.437 0.438-0.199 0.281c0.078-0.078 0.144-0.133 0.199-0.16 0.105 0 0.16 0.015 0.16 0.039 0 0.027 0.027 0.066 0.078 0.121 0.16 0.133 0.254 0.332 0.281 0.602 0.055 0.293 0.012 0.543-0.121 0.757-0.211-0.187-0.359-0.293-0.437-0.32-0.137-0.051-0.242 0.106-0.321 0.481-0.109 0.48-0.148 0.785-0.121 0.921 0 0.051 0.039 0.184 0.121 0.399 0.079 0.187 0.094 0.332 0.039 0.441-0.187-0.242-0.347-0.414-0.48-0.519-0.215-0.242-0.375-0.176-0.48 0.199-0.055 0.133-0.079 0.348-0.079 0.641 0 0.32-0.015 0.519-0.043 0.597l-0.078 0.403-0.121-0.481c0.055 0.293 0.121 0.574 0.199 0.84 0.082 0.266 0.188 0.504 0.321 0.719 0.109 0.187 0.242 0.359 0.402 0.519 0.133 0.16 0.254 0.309 0.359 0.442 0.215 0.187 0.372 0.32 0.481 0.398 0.105 0.055 0.211 0.082 0.32 0.082l-0.402-0.961 0.242 0.719-0.082-0.078c-0.586-0.481-0.973-1.106-1.16-1.879-0.106-0.508-0.145-0.867-0.117-1.082 0-0.027 0.093-0.36 0.277-1 0.215 0.187 0.387 0.652 0.52 1.398h0.043l0.039-0.039c0.105 0.106 0.254 0.293 0.437 0.563 0.16 0.293 0.309 0.492 0.442 0.597 0.027 0.028 0.054 0.055 0.082 0.082 0.425 0.399 0.757 0.625 1 0.68 0.05 0.024 0.093 0.039 0.117 0.039-0.024-0.082-0.067-0.148-0.117-0.199-0.668-0.508-1.215-1.172-1.641-2-0.215-0.481-0.309-0.949-0.281-1.402 0-0.051 0.121-0.454 0.359-1.2 0.055 0.028 0.082 0.188 0.082 0.481l0.16 0.32c0 0.028 0.078 0.121 0.239 0.281v-0.121c0.105 0.375 0.292 0.746 0.558 1.121 0.082 0.106 0.16 0.184 0.242 0.239 0.215 0.242 0.442 0.375 0.68 0.398-0.293-0.453-0.535-1.039-0.719-1.758l-0.203-0.359c-0.105-0.242-0.09-0.586 0.043-1.039 0.106-0.402 0.117-0.684 0.039-0.844l-0.238-0.359zm4 1.402 0.84 0.559-0.043-0.039v-0.082l-0.797-0.438zm-0.481-0.762c-0.109-0.16-0.214-0.281-0.32-0.359l-0.082-0.078c-0.051-0.027-0.117-0.055-0.199-0.082l0.32 0.238 0.281 0.281zm-1.882 1.801c0.054 0.293 0.093 0.52 0.121 0.68 0.054 0.238 0.132 0.398 0.242 0.48-0.11-0.105-0.188-0.281-0.242-0.519-0.028-0.215-0.067-0.469-0.121-0.762v0.121zm4.441-1.801l0.16 0.2c-0.105-0.161-0.215-0.321-0.32-0.481 0.055 0.11 0.105 0.203 0.16 0.281z" inkscape:connector-curvature="0"/>
      <path id="path46" style="fill-rule:evenodd;fill:#6c840e" d="m2.48 5.481 0.04 0.239 0.121-0.282-0.161 0.043zm0.079 0.797-0.039-0.398-0.321-0.239c0.106 0.211 0.227 0.426 0.36 0.637zm3.363-3.359-0.082 0.121 0.16 0.359 0.441 1.922c-0.347-0.641-0.695-1.094-1.043-1.363-0.293-0.211-0.613-0.399-0.957-0.559v0.121l-0.242 0.602c0.133 0.266 0.266 0.449 0.403 0.558l0.757 0.68c-0.293-0.16-0.57-0.32-0.839-0.48-0.161-0.215-0.305-0.414-0.442-0.602-0.133-0.156-0.266-0.293-0.398-0.398l-0.16 0.242c0.082 0.051 0.175 0.133 0.281 0.238 0.027 0.106 0.078 0.199 0.16 0.281 0.027 0.028 0.051 0.067 0.078 0.118 0.055 0.109 0.121 0.214 0.199 0.32-0.078-0.078-0.343-0.211-0.797-0.399l-0.242-0.082h-0.039l-0.238 0.403h0.039c0.133-0.082 0.305-0.055 0.519 0.078 0.239 0.16 0.598 0.43 1.079 0.801l0.761 0.679-0.039-0.121 0.078 0.043c-0.027-0.027-0.066-0.082-0.121-0.16 0-0.082-0.05-0.16-0.16-0.242-0.133-0.399-0.25-0.691-0.359-0.879v-0.039l0.121 0.117c0.398 0.27 0.922 0.883 1.558 1.844l-0.359-1.961 0.52 0.641c0.402 0.48 0.707 0.89 0.921 1.238 0.215 0.348 0.454 0.629 0.719 0.84 0.106 0.109 0.414 0.347 0.922 0.718 0.453 0.375 1.984 1.055 4.598 2.043 0.933 0.399 1.707 0.918 2.32 1.559 0.375 0.375 0.934 0.988 1.68 1.84 0.562 0.586 0.867 1.172 0.922 1.762l0.519 0.597v-0.32c0-0.106-0.055-0.211-0.16-0.32-0.078-0.079-0.105-0.172-0.078-0.278-0.457-0.801-0.91-1.496-1.363-2.082-0.133-0.211-0.278-0.414-0.438-0.597l-0.16-0.161 0.039-0.043c-0.641-0.691-1.266-1.199-1.879-1.519-0.187-0.106-1.336-0.625-3.441-1.559-1.332-0.613-2.16-1.109-2.481-1.48-1.277-1.492-1.972-2.574-2.078-3.242-0.082-0.504-0.148-0.825-0.199-0.957-0.082-0.188-0.188-0.321-0.32-0.403-0.082-0.027-0.309-0.199-0.68-0.519zm14.316 14.562-0.476-0.16-0.121 0.039-0.039 0.039v0.16c-0.055 0.243-0.204 0.536-0.442 0.879-0.265 0.375-0.465 0.657-0.601 0.84 0.109 0.16 0.336-0.012 0.679-0.519l0.082-0.161 0.2-0.32c0.027 0 0.054-0.023 0.082-0.078l0.199-0.281 0.437-0.438zm-0.359 6.879-0.078-0.16c-0.426-0.398-0.641-1.172-0.641-2.32 0.106 0.027 0.215 0.172 0.32 0.441l0.079 0.117c-0.133-0.746-0.305-1.211-0.52-1.398-0.184 0.64-0.277 0.973-0.277 1-0.028 0.215 0.011 0.574 0.117 1.082 0.187 0.773 0.574 1.398 1.16 1.879l0.082 0.078-0.242-0.719zm0.922-1.922c-0.16-0.078-0.309-0.238-0.442-0.476-0.05-0.137-0.132-0.364-0.238-0.684-0.242-0.426-0.293-0.906-0.16-1.437 0.078 0.027 0.133 0.093 0.16 0.199 0-0.293-0.027-0.453-0.082-0.481-0.238 0.746-0.359 1.149-0.359 1.2-0.028 0.453 0.066 0.921 0.281 1.402 0.426 0.828 0.973 1.492 1.641 2-0.028-0.027-0.043-0.055-0.043-0.082-0.184-0.266-0.344-0.547-0.481-0.84l-0.156-0.359c-0.027-0.106-0.067-0.227-0.121-0.36v-0.082zm4.961-2.558-0.84-0.559-0.203-0.16c-0.344-0.188-0.614-0.293-0.797-0.32-0.297-0.055-0.617-0.133-0.961-0.243-0.215-0.078-0.359-0.078-0.441 0-0.106 0.082-0.227 0.067-0.36-0.039 0.188-0.32 0.266-0.57 0.238-0.757 0-0.27-0.011-0.442-0.039-0.524-0.05-0.156-0.16-0.25-0.32-0.277-0.504-0.16-0.961-0.215-1.359-0.16l0.082 0.078c0.531 0.535 0.691 0.933 0.476 1.203l-0.316-0.203 0.238 0.359c0.078 0.16 0.067 0.442-0.039 0.844-0.133 0.453-0.148 0.797-0.043 1.039l0.203 0.359-0.043-0.32 0.16 0.16-0.078-0.16c0.219 0.098 0.41 0.27 0.578 0.52h0.024c0.023 0.035 0.051 0.066 0.078 0.101l0.68 0.539c0-0.055-0.055-0.148-0.16-0.281l-0.122-0.238c-0.023-0.028-0.066-0.082-0.117-0.161-0.375-0.265-0.613-0.48-0.722-0.64-0.106-0.16-0.133-0.32-0.079-0.481 0.051-0.132 0.161-0.187 0.321-0.16-0.082-0.133-0.082-0.238 0-0.32 0.133-0.133 0.238-0.293 0.32-0.481l0.117 0.204c0.082 0.105 0.227 0.226 0.442 0.359v0.039c0.293-0.187 0.64-0.199 1.039-0.039 0.054 0.027 0.121 0.051 0.203 0.078 0.156 0.106 0.359 0.227 0.598 0.359 0.105 0.082 0.199 0.137 0.281 0.161 0.719 0.402 1.187 0.707 1.398 0.921l-0.437-0.8zm-3.203 0.359 0.16 0.121c0.109 0.055 0.308 0.188 0.601 0.399 0.078 0.054 0.172 0.121 0.282 0.203 0.343 0.238 0.625 0.41 0.839 0.519-0.64-0.586-1.093-0.988-1.363-1.203-0.238-0.183-0.519-0.344-0.84-0.476 0.137 0.16 0.242 0.343 0.321 0.558v-0.121zm3.48-1.801 0.52 0.242 0.121 0.079c0.082 0 0.187 0.066 0.32 0.203 0.16 0.078 0.293 0.117 0.398 0.117l-0.238-0.32-0.16-0.2c-0.508-0.504-1.012-0.867-1.52-1.078-0.453-0.215-0.96-0.269-1.519-0.16l-0.641 0.16 0.801 0.481v0.039l0.32-0.039c0.079 0.027 0.239 0.066 0.481 0.117 0.211 0.055 0.465 0.121 0.758 0.199l0.359 0.16z" inkscape:connector-curvature="0"/>
      <path id="path48" style="fill-rule:evenodd;fill:#546708" d="m17 12.598c0.027-0.05 0.066-0.089 0.121-0.117 0.426-0.426 0.891-0.679 1.399-0.761-0.188 0.109-0.332 0.214-0.442 0.32-0.105 0.082-0.156 0.187-0.156 0.32 0 0.106 0.078 0.16 0.238 0.16 0.133 0 0.36-0.054 0.68-0.16 0.32-0.082 0.547-0.105 0.68-0.082 0.48 0.055 1 0.309 1.558 0.762-1.383-0.668-2.453-0.52-3.199 0.441l-0.078 0.078-0.242-0.16c0.453 0.586 0.906 1.281 1.363 2.082-0.027 0.106 0 0.199 0.078 0.278 0.105 0.109 0.16 0.214 0.16 0.32v0.32l0.16 0.242 0.52-0.722c-0.106-0.16-0.215-0.332-0.32-0.52-0.055-0.078-0.122-0.16-0.2-0.238l-0.558-0.762c-0.16-0.211-0.321-0.414-0.481-0.597-0.054-0.082-0.105-0.149-0.16-0.204 0.027 0.028 0.055 0.043 0.078 0.043 0.082 0.024 0.16 0.039 0.242 0.039 0.106 0 0.454-0.082 1.039-0.242 0.372-0.133 0.747-0.199 1.122-0.199 0.16 0 0.425 0.027 0.796 0.082-0.558-0.75-1.199-1.242-1.918-1.48-0.855-0.321-1.64-0.11-2.359 0.64-0.027-0.027-0.043-0.054-0.043-0.082-0.851-0.851-2.437-2.027-4.758-3.519-0.558-0.188-1.215-0.575-1.961-1.16-0.8-0.051-1.371-0.426-1.718-1.122-0.266-0.316-0.453-0.585-0.563-0.796-0.183-0.321-0.383-0.856-0.598-1.602-0.32-0.668-0.695-1.094-1.121-1.281-0.214-0.078-0.359-0.078-0.437 0 0.371 0.32 0.598 0.492 0.68 0.519 0.132 0.082 0.238 0.215 0.32 0.403 0.051 0.132 0.117 0.453 0.199 0.961 0.106 0.664 0.801 1.746 2.078 3.238 0.321 0.375 1.149 0.867 2.481 1.48 2.105 0.934 3.254 1.453 3.441 1.559 0.613 0.32 1.238 0.828 1.879 1.519zm-13.641-8.238 0.039-0.039h-0.039v0.039zm8.762 6.16-1.601-0.718 0.48 0.64 0.238 0.36c0.137 0.078 0.242 0.171 0.321 0.277 0.187 0.242 0.269 0.508 0.242 0.801 0 0.425-0.227 0.773-0.68 1.043-0.402 0.211-1.082 0.265-2.043 0.156l-1.359-0.199v0.222l0.019 0.078c0.012 0.063 0.032 0.122 0.063 0.18l0.16-0.039c0.32 0 0.812 0.055 1.48 0.16 0.614 0.078 1.133 0.039 1.559-0.121 0.695-0.187 1.145-0.57 1.359-1.16 0.082-0.211 0.161-0.437 0.243-0.68 0-0.16 0.011-0.32 0.039-0.48v-0.078c-0.161-0.133-0.336-0.282-0.52-0.442zm1.117 2.121c-0.343 0.399-0.664 0.653-0.957 0.758 0.16 0.106 0.25 0.199 0.278 0.281 0.054 0.133 0 0.282-0.161 0.442-0.425 0.211-0.718 0.371-0.878 0.476-0.747 0.375-1.426 0.387-2.04 0.043 0.774 0.559 1.442 0.774 2 0.637 0.801-0.558 1.36-1.316 1.68-2.277 0.055-0.106 0.078-0.215 0.078-0.321v-0.039zm10.883 5.36v-0.039l-0.801-0.481 0.641-0.16c0.559-0.109 1.066-0.055 1.519 0.16 0.508 0.211 1.012 0.571 1.52 1.078-0.055-0.078-0.105-0.171-0.16-0.281 0-0.023-0.012-0.051-0.039-0.078-0.082-0.055-0.137-0.105-0.16-0.16-0.11-0.078-0.203-0.172-0.282-0.281-0.187-0.161-0.371-0.321-0.558-0.481l-0.961-0.758-0.242-0.082c-0.211 0-0.387 0.016-0.52 0.043-0.183 0.106-0.305 0.16-0.359 0.16-0.078-0.027-0.215-0.109-0.399-0.242-0.187-0.133-0.308-0.211-0.359-0.238-0.297-0.106-0.707-0.094-1.242 0.039-0.293 0-0.508 0.012-0.641 0.039-0.238 0.027-0.453 0.121-0.64 0.281l-0.317 0.52c0 0.105-0.043 0.187-0.121 0.238-0.082 0.055-0.199 0.016-0.359-0.117v0.16h0.117l0.48 0.16 0.68 0.438 0.32 0.203c0.215-0.27 0.055-0.668-0.48-1.203l-0.078-0.078c0.398-0.055 0.851 0 1.359 0.16 0.16 0.027 0.266 0.121 0.32 0.277 0.028 0.082 0.039 0.254 0.039 0.524 0.028 0.183-0.054 0.437-0.238 0.757 0.133 0.106 0.254 0.121 0.36 0.039 0.078-0.078 0.226-0.078 0.441 0 0.344 0.11 0.664 0.188 0.957 0.243 0.187 0.027 0.453 0.132 0.801 0.32l-1.16-0.801c-0.293-0.16-0.481-0.387-0.559-0.68 0.078-0.082 0.188-0.093 0.32-0.039l0.239 0.239 0.242 0.121h0.32zm-0.723 1.801c-0.398-0.27-0.652-0.457-0.757-0.563l0.039-0.039v-0.039c-0.215-0.133-0.36-0.254-0.442-0.359l-0.117-0.204c-0.082 0.188-0.187 0.348-0.32 0.481-0.082 0.082-0.082 0.187 0 0.32-0.16-0.027-0.266 0.028-0.321 0.16-0.054 0.161-0.027 0.321 0.079 0.481 0.109 0.16 0.347 0.375 0.722 0.64 0.051 0.079 0.094 0.133 0.117 0.161l0.122 0.238c0.105 0.133 0.16 0.226 0.16 0.281l0.242 0.16c-0.11-0.082-0.188-0.242-0.242-0.48-0.028-0.16-0.067-0.387-0.121-0.68-0.079-0.215-0.184-0.398-0.321-0.558 0.321 0.132 0.602 0.293 0.84 0.476 0.27 0.215 0.723 0.617 1.363 1.203-0.027-0.242-0.214-0.601-0.562-1.082-0.051-0.133-0.199-0.32-0.438-0.558l-0.043-0.039zm-3.597 4.398-0.121-0.238c-0.028-0.082-0.039-0.176-0.039-0.282-0.028-0.105-0.055-0.253-0.082-0.441-0.051-0.344-0.039-0.598 0.043-0.758v-0.043h-0.043l-0.079-0.117c-0.105-0.266-0.214-0.414-0.32-0.441 0 1.148 0.215 1.922 0.641 2.32zm1.597-3.84 0.082 0.039 0.399 0.321h0.019c-0.168-0.25-0.359-0.422-0.578-0.52l0.078 0.16zm0.524 0.36 0.039 0.082l0.039 0.019c-0.027-0.035-0.055-0.066-0.078-0.101zm-1.801-0.68c-0.027-0.106-0.082-0.172-0.16-0.199-0.133 0.531-0.082 1.011 0.16 1.437 0.106 0.32 0.184 0.547 0.238 0.684 0.133 0.238 0.282 0.398 0.442 0.476-0.106-0.293-0.176-0.586-0.199-0.879l-0.082-0.918c-0.161-0.16-0.239-0.253-0.239-0.281l-0.16-0.32zm-16.043-15.762c0.137 0.188 0.281 0.387 0.442 0.602 0.265 0.16 0.546 0.32 0.839 0.48l-0.757-0.68c-0.137-0.109-0.27-0.292-0.403-0.558l-0.121 0.156zm1.762-1.238-0.199 0.359c-0.426-0.187-0.735-0.254-0.922-0.199-0.16 0.027-0.254 0.094-0.278 0.199 0.348 0.16 0.664 0.348 0.957 0.563 0.348 0.265 0.696 0.718 1.043 1.359l-0.441-1.922-0.16-0.359z" inkscape:connector-curvature="0"/>
      <path id="path50" style="fill-rule:evenodd;fill:#a5c71a" d="m3.48 7.36c0.293 0.238 0.653 0.52 1.079 0.84l1.562 1.16c0.133 0.051 0.254 0.094 0.359 0.121 0.293 0.078 0.586 0.16 0.879 0.239 1.575 0.48 2.973 0.933 4.2 1.359-0.079-0.106-0.184-0.199-0.321-0.281l-0.238-0.36c-0.32-0.105-0.652-0.238-1-0.398-1.121-0.508-1.855-0.945-2.199-1.32-0.321-0.348-0.535-0.707-0.641-1.079 0.028 0.266-0.055 0.454-0.238 0.559-0.11 0.055-0.16 0-0.16-0.16-0.055-0.293-0.082-0.469-0.082-0.52-0.055-0.132-0.133-0.215-0.239-0.242-0.109-0.023-0.16 0.067-0.16 0.281-0.027-0.027-0.054-0.078-0.082-0.16-0.078-0.133-0.226-0.304-0.437-0.519l-0.403-0.399-0.078-0.039 0.039 0.117-0.761-0.679c0.054 0.265 0.066 0.465 0.043 0.601-0.137-0.082-0.348-0.281-0.641-0.601-0.293-0.266-0.547-0.442-0.762-0.52-0.265-0.055-0.437-0.015-0.519 0.121-0.055 0.106-0.055 0.211 0 0.317 0.105 0.16 0.16 0.269 0.16 0.32 0.105 0.426 0.199 0.695 0.281 0.801v0.043c0.106 0.105 0.227 0.238 0.359 0.398zm14.079 7.281c0.242-0.242-0.024-0.679-0.797-1.32-0.696-0.641-1.297-1.094-1.801-1.359-0.613-0.348-1.309-0.629-2.082-0.84-0.027 0-0.051-0.016-0.078-0.043 0.187 0.215 0.32 0.441 0.398 0.68 0.613 0.296 1.16 0.574 1.641 0.839l1.762 1.204c0.32 0.265 0.636 0.558 0.957 0.878v-0.039zm2.043 3.559c-0.028 0.055-0.055 0.078-0.082 0.078l-0.2 0.32-0.082 0.161c-0.183 0.453-0.304 0.707-0.359 0.761-0.211 0.133-0.371 0.239-0.481 0.321h-0.039v0.039h-0.039c-0.187 0.535-0.226 1.347-0.121 2.441l0.121 0.481 0.078-0.403c0.028-0.078 0.043-0.277 0.043-0.597 0-0.297 0.024-0.508 0.079-0.641 0.105-0.375 0.265-0.441 0.48-0.199 0.133 0.105 0.293 0.277 0.48 0.519 0.051-0.109 0.04-0.254-0.039-0.441-0.082-0.215-0.121-0.348-0.121-0.399-0.027-0.136 0.012-0.441 0.121-0.921 0.079-0.375 0.184-0.532 0.321-0.481 0.078 0.027 0.226 0.133 0.437 0.32 0.133-0.214 0.176-0.464 0.121-0.757-0.027-0.27-0.121-0.469-0.281-0.602-0.051-0.055-0.078-0.094-0.078-0.121s-0.055-0.039-0.16-0.039c-0.055 0.027-0.121 0.082-0.199 0.16z" inkscape:connector-curvature="0"/>
      <path id="path52" style="fill-rule:evenodd;fill:#3b4a03" d="m24.84 16.52c-0.238-0.187-0.453-0.332-0.641-0.441-0.054-0.027-0.121-0.051-0.199-0.078l-0.039-0.039c-0.426-0.188-0.801-0.27-1.121-0.242-0.133 0-0.348 0.054-0.641 0.16-0.32 0.082-0.531 0.133-0.64 0.16l-1.559 0.121-0.16-0.242-0.52 0.722c0.106 0.106 0.2 0.227 0.282 0.36 0.023 0.051 0.039 0.105 0.039 0.16 0.16 0.133 0.281 0.172 0.359 0.117 0.078-0.051 0.121-0.133 0.121-0.238l0.32-0.52c0.184-0.16 0.399-0.254 0.637-0.281 0.137-0.027 0.348-0.039 0.641-0.039 0.535-0.133 0.949-0.148 1.242-0.039 0.051 0.027 0.172 0.105 0.359 0.238 0.188 0.133 0.321 0.215 0.399 0.242 0.054 0 0.176-0.054 0.359-0.16 0.137-0.027 0.309-0.043 0.524-0.043l0.238 0.082zm-18.918-13.601c0.078-0.078 0.223-0.078 0.437 0 0.43 0.187 0.801 0.613 1.121 1.281 0.215 0.746 0.415 1.281 0.598 1.602 0.11 0.211 0.297 0.48 0.563 0.796 0.347 0.696 0.918 1.071 1.718 1.122-0.293-0.215-0.597-0.481-0.918-0.801-0.136-0.106-0.253-0.227-0.363-0.36l-0.437-0.398c-0.426-0.563-0.868-1.348-1.321-2.359-0.242-0.508-0.441-0.961-0.601-1.364l-1.078 0.242c-0.696 0.266-1.188 0.508-1.481 0.719-0.133 0.055-0.265 0.172-0.398 0.36-0.028 0.027-0.055 0.066-0.082 0.121-0.078 0.105-0.188 0.254-0.321 0.441h0.039l-0.039 0.039-0.199 0.238h0.039l0.242 0.082c0.454 0.188 0.719 0.321 0.797 0.399-0.078-0.106-0.144-0.211-0.199-0.316-0.027-0.055-0.051-0.094-0.078-0.122-0.082-0.082-0.133-0.171-0.16-0.281-0.106-0.105-0.199-0.187-0.281-0.238l0.16-0.242c0.132 0.105 0.265 0.242 0.398 0.398l0.121-0.156 0.242-0.602v-0.121c0.024-0.105 0.118-0.172 0.278-0.199 0.187-0.055 0.496 0.012 0.922 0.199l0.199-0.359 0.082-0.121zm-3.723 2.722 0.321 0.239 0.16 0.121-0.16-0.281-0.04-0.243c-0.132 0.055-0.226 0.11-0.281 0.164zm21.641 12.399c-0.028-0.027-0.051-0.039-0.078-0.039h0.039l-0.242-0.121-0.239-0.239c-0.132-0.054-0.242-0.043-0.32 0.039 0.078 0.293 0.266 0.52 0.559 0.68l1.16 0.801 0.203 0.16 0.797 0.438-0.117-0.161c-0.11-0.21-0.282-0.398-0.524-0.558-0.266-0.215-0.476-0.375-0.637-0.481l-0.281-0.281-0.32-0.238zm-6.719-5.559c-0.055 0.024-0.094 0.067-0.121 0.117l-0.039 0.043 0.16 0.161c0.16 0.183 0.305 0.386 0.438 0.597l0.242 0.16 0.078-0.078c0.746-0.961 1.816-1.109 3.199-0.441-0.558-0.453-1.078-0.707-1.558-0.762-0.133-0.023-0.36 0-0.68 0.082-0.32 0.106-0.547 0.16-0.68 0.16-0.16 0-0.238-0.054-0.238-0.16 0-0.133 0.051-0.238 0.156-0.32 0.11-0.106 0.254-0.211 0.442-0.32-0.508 0.082-0.973 0.335-1.399 0.761z" inkscape:connector-curvature="0"/>
      <g id="g54">
        <g id="g56">
          <g id="g62">
            <path id="path70" style="fill-rule:evenodd;fill:url(#linearGradient64)" d="m12.121 10.52c0.184 0.16 0.359 0.309 0.52 0.442v0.078c-0.028 0.16-0.039 0.32-0.039 0.48-0.082 0.243-0.161 0.469-0.243 0.68-0.214 0.59-0.664 0.973-1.359 1.16-0.426 0.16-0.945 0.199-1.559 0.121-0.668-0.105-1.16-0.16-1.48-0.16l-0.16 0.039c-0.031-0.058-0.051-0.117-0.063-0.18 0.016 0.094 0.051 0.196 0.102 0.301 0.187 0.532 0.574 1.121 1.16 1.758 0.641 0.695 1.426 0.734 2.359 0.121 0.055-0.027 0.094-0.051 0.121-0.078-0.558 0.133-1.226-0.082-2-0.641 0.614 0.348 1.293 0.332 2.04-0.039 0.16-0.109 0.453-0.269 0.878-0.48 0.161-0.16 0.215-0.309 0.161-0.442-0.024-0.078-0.118-0.171-0.278-0.281 0.293-0.105 0.614-0.359 0.957-0.758 0.055-0.293 0.043-0.586-0.039-0.882-0.078-0.239-0.211-0.465-0.398-0.68-0.082-0.078-0.176-0.16-0.281-0.238-0.133-0.106-0.266-0.215-0.399-0.321z" inkscape:connector-curvature="0"/>
          </g>
        </g>
      </g>
    </g>
  </g>
<metadata><rdf:RDF><cc:Work><dc:format>image/svg+xml</dc:format><dc:type rdf:resource="http://purl.org/dc/dcmitype/StillImage"/><cc:license rdf:resource="http://creativecommons.org/licenses/publicdomain/"/><dc:publisher><cc:Agent rdf:about="http://openclipart.org/"><dc:title>Openclipart</dc:title></cc:Agent></dc:publisher></cc:Work><cc:License rdf:about="http://creativecommons.org/licenses/publicdomain/"><cc:permits rdf:resource="http://creativecommons.org/ns#Reproduction"/><cc:permits rdf:resource="http://creativecommons.org/ns#Distribution"/><cc:permits rdf:resource="http://creativecommons.org/ns#DerivativeWorks"/></cc:License></rdf:RDF></metadata></svg>
